<svg width="800" height="450" xmlns="http://www.w3.org/2000/svg">
  <defs>
    <linearGradient id="space-grad" x1="0%" y1="0%" x2="100%" y2="100%">
      <stop offset="0%" style="stop-color:#0a0a2e;stop-opacity:1" />
      <stop offset="100%" style="stop-color:#16213e;stop-opacity:1" />
    </linearGradient>
    <radialGradient id="star-glow" cx="50%" cy="50%" r="50%">
      <stop offset="0%" style="stop-color:#ffffff;stop-opacity:1" />
      <stop offset="100%" style="stop-color:#ffffff;stop-opacity:0" />
    </radialGradient>
  </defs>
  <rect width="800" height="450" fill="url(#space-grad)"/>
  <circle cx="100" cy="80" r="2" fill="white"/>
  <circle cx="250" cy="50" r="1.5" fill="white"/>
  <circle cx="380" cy="100" r="2" fill="white"/>
  <circle cx="600" cy="70" r="1" fill="white"/>
  <circle cx="720" cy="90" r="2" fill="white"/>
  <circle cx="150" cy="200" r="1" fill="white"/>
  <circle cx="500" cy="250" r="1.5" fill="white"/>
  <circle cx="650" cy="300" r="1" fill="white"/>
  <circle cx="300" cy="380" r="2" fill="white"/>
  <circle cx="700" cy="400" r="1.5" fill="white"/>
  <circle cx="550" cy="150" r="60" fill="#4169e1" opacity="0.6"/>
  <circle cx="550" cy="150" r="50" fill="url(#star-glow)" opacity="0.3"/>
  <ellipse cx="400" cy="300" rx="80" ry="30" fill="#808080" opacity="0.7"/>
  <polygon points="400,280 420,320 380,320" fill="#c0c0c0"/>
  <rect x="395" y="290" width="10" height="30" fill="#505050"/>
  <text x="400" y="200" font-family="Arial, sans-serif" font-size="48" font-weight="bold" text-anchor="middle" fill="#ffffff">
    SPACE EXPLORER
  </text>
  <text x="400" y="410" font-family="Arial, sans-serif" font-size="16" text-anchor="middle" fill="#4169e1">
    3D Space Adventure
  </text>
</svg>
